<?xml version="1.0" encoding="UTF-8" standalone="no"?>
<svg
   xmlns:dc="http://purl.org/dc/elements/1.1/"
   xmlns:cc="http://creativecommons.org/ns#"
   xmlns:rdf="http://www.w3.org/1999/02/22-rdf-syntax-ns#"
   xmlns:svg="http://www.w3.org/2000/svg"
   xmlns="http://www.w3.org/2000/svg"
   xmlns:sodipodi="http://sodipodi.sourceforge.net/DTD/sodipodi-0.dtd"
   xmlns:inkscape="http://www.inkscape.org/namespaces/inkscape"
   sodipodi:docname="GALD-LOGO.svg"
   inkscape:version="1.0 (4035a4fb49, 2020-05-01)"
   id="svg8"
   version="1.1"
   viewBox="0 0 270.93333 270.93334"
   height="1024"
   width="1024">
  <defs
     id="defs2" />
  <sodipodi:namedview
     inkscape:window-maximized="1"
     inkscape:window-y="-6"
     inkscape:window-x="-6"
     inkscape:window-height="1438"
     inkscape:window-width="2250"
     units="px"
     inkscape:snap-global="true"
     showgrid="false"
     inkscape:document-rotation="0"
     inkscape:current-layer="text944"
     inkscape:document-units="mm"
     inkscape:cy="972.36689"
     inkscape:cx="2105.2065"
     inkscape:zoom="0.98994949"
     inkscape:pageshadow="2"
     inkscape:pageopacity="0.0"
     borderopacity="1.0"
     bordercolor="#666666"
     pagecolor="#ffffff"
     id="base" />
  <metadata
     id="metadata5">
    <rdf:RDF>
      <cc:Work
         rdf:about="">
        <dc:format>image/svg+xml</dc:format>
        <dc:type
           rdf:resource="http://purl.org/dc/dcmitype/StillImage" />
        <dc:title></dc:title>
      </cc:Work>
    </rdf:RDF>
  </metadata>
  <g
     id="layer1"
     inkscape:groupmode="layer"
     inkscape:label="Layer 1">
    <g
       transform="matrix(14.083185,0,0,14.083185,-3060.5572,50.442273)"
       id="g888">
      <g
         transform="matrix(3.90625,0,0,3.90625,-732.94985,-45.726667)"
         id="g940">
        <path
           d="m 245.46035,10.846816 c 0,0 0.061,0.444283 -0.20621,0.78696 -0.26717,0.342677 -1.38939,1.086414 -1.40107,1.678611 -0.0131,0.661005 0.49938,1.134279 1.06425,1.138386 0.56337,0.0041 0.90601,-0.342659 0.90601,-0.342659 0,0 0.41714,0.259797 0.93192,0.232886 0.34734,-0.01816 0.86385,-0.418203 0.8549,-1.011207 -0.0608,-1.268199 -0.95873,-1.999123 -2.1498,-2.482977 z m 0.0956,0.167454 c 1.03103,0.60797 1.47072,1.126196 1.69106,1.957745 0.13141,0.495873 -0.11178,0.990382 -0.45369,1.056945 -0.13381,0.02605 -0.28081,0.0046 -0.41979,-0.03722 0.14219,-0.102353 0.3003,-0.273336 0.28371,-0.522184 -0.0287,-0.431228 -0.6088,-0.786705 -0.85023,-0.786705 -0.24032,0 -0.6237,0.252217 -0.79255,0.655207 -0.15664,0.373844 0.16745,0.712922 0.25664,0.796743 -0.0948,0.03734 -0.20004,0.06179 -0.31572,0.06099 -0.52203,-0.0037 -0.8173,-0.335138 -0.80526,-0.91973 0.0108,-0.523736 0.94523,-1.144705 1.20369,-1.437974 0.28757,-0.326295 0.20214,-0.823805 0.20214,-0.823807 z m 0.26275,1.858899 c 0.26511,0 0.66276,0.218849 0.68595,0.542511 0.0172,0.240194 -0.22122,0.400481 -0.35663,0.472126 0.0365,-0.0571 0.0557,-0.12162 0.0558,-0.187275 1e-5,-0.209649 -0.19146,-0.379613 -0.42766,-0.379631 -0.23625,-4.3e-5 -0.42779,0.169939 -0.42778,0.379631 7e-5,0.05461 0.0134,0.108566 0.0392,0.158179 -0.13875,-0.136194 -0.29642,-0.346278 -0.20837,-0.541749 0.13625,-0.302468 0.41756,-0.443792 0.63959,-0.443792 z"
           style="fill:#ff0000;stroke:none;stroke-width:0.012293;stroke-linecap:round;stroke-linejoin:miter;stroke-miterlimit:4;stroke-dasharray:none;stroke-opacity:1"
           id="path928"
           sodipodi:nodetypes="cccscscccssccsscccccscccccccs" />
        <g
           transform="matrix(0.256,0,0,0.256,186.98516,11.673195)"
           id="g938">
          <path
             style="color:#000000;font-style:normal;font-variant:normal;font-weight:normal;font-stretch:normal;font-size:medium;line-height:normal;font-family:sans-serif;font-variant-ligatures:normal;font-variant-position:normal;font-variant-caps:normal;font-variant-numeric:normal;font-variant-alternates:normal;font-variant-east-asian:normal;font-feature-settings:normal;font-variation-settings:normal;text-indent:0;text-align:start;text-decoration:none;text-decoration-line:none;text-decoration-style:solid;text-decoration-color:#000000;letter-spacing:normal;word-spacing:normal;text-transform:none;writing-mode:lr-tb;direction:ltr;text-orientation:mixed;dominant-baseline:auto;baseline-shift:baseline;text-anchor:start;white-space:normal;shape-padding:0;shape-margin:0;inline-size:0;clip-rule:nonzero;display:inline;overflow:visible;visibility:visible;opacity:1;isolation:auto;mix-blend-mode:normal;color-interpolation:sRGB;color-interpolation-filters:linearRGB;solid-color:#000000;solid-opacity:1;vector-effect:none;fill:#ff0000;fill-opacity:1;fill-rule:nonzero;stroke:none;stroke-width:0.326757px;stroke-linecap:round;stroke-linejoin:miter;stroke-miterlimit:4;stroke-dasharray:none;stroke-dashoffset:0;stroke-opacity:1;color-rendering:auto;image-rendering:auto;shape-rendering:auto;text-rendering:auto;enable-background:accumulate;stop-color:#000000;stop-opacity:1"
             d="m 227.32959,11.563577 c -1.68088,0.01307 -2.06303,2.332817 -1.96614,3.719176 -0.001,0.08981 0.084,0.288141 0.24671,0.275839 0.20649,0.0017 0.28086,-0.178799 0.28315,-0.268602 -0.42159,-1.477819 0.0463,-3.00294 1.43145,-3.047665 1.23438,-0.01676 1.88559,1.123659 1.49001,2.663682 -0.0409,0.210881 -0.12525,0.139392 -0.21931,0.0068 -0.32224,-0.545386 -0.76804,-1.060632 -1.29629,-1.085983 -0.47695,-0.02288 -0.82471,0.358979 -0.99955,0.914079 -0.0312,0.0846 0.0123,0.178522 0.0964,0.209851 0.0846,0.03127 0.17852,-0.01186 0.20985,-0.09649 0.18506,-0.399541 0.50355,-0.446609 0.80262,-0.413275 0.4371,0.04872 0.80237,0.443464 1.01127,0.84745 0.19288,0.403137 0.63218,0.235973 0.76831,-0.05983 0.43986,-1.39981 -0.30202,-3.564672 -1.85857,-3.665019 z"
             id="path930"
             sodipodi:nodetypes="sccccccscccacccs" />
          <path
             sodipodi:nodetypes="sccccccscccacccs"
             id="path932"
             d="m 220.08447,13.559497 c 0.0131,-1.68088 2.33282,-2.063022 3.71918,-1.966137 0.0898,-0.0012 0.28814,0.08398 0.27584,0.246713 0.001,0.20649 -0.1788,0.280861 -0.26861,0.283146 -1.47781,-0.421588 -3.00293,0.04631 -3.04766,1.431449 -0.0168,1.234382 1.12366,1.885591 2.66368,1.490012 0.21089,-0.04088 0.13939,-0.125252 0.007,-0.219309 -0.54538,-0.322245 -1.06063,-0.768038 -1.08597,-1.296292 -0.0229,-0.476952 0.35897,-0.824712 0.91407,-0.999549 0.0846,-0.03125 0.17852,0.01235 0.20985,0.09645 0.0312,0.0846 -0.0123,0.178518 -0.0965,0.209849 -0.39954,0.185063 -0.44661,0.503554 -0.41328,0.802618 0.0488,0.4371 0.44346,0.802372 0.84745,1.01127 0.40314,0.19288 0.23598,0.632178 -0.0599,0.76831 -1.39981,0.439866 -3.56467,-0.302016 -3.66501,-1.858569 z"
             style="color:#000000;font-style:normal;font-variant:normal;font-weight:normal;font-stretch:normal;font-size:medium;line-height:normal;font-family:sans-serif;font-variant-ligatures:normal;font-variant-position:normal;font-variant-caps:normal;font-variant-numeric:normal;font-variant-alternates:normal;font-variant-east-asian:normal;font-feature-settings:normal;font-variation-settings:normal;text-indent:0;text-align:start;text-decoration:none;text-decoration-line:none;text-decoration-style:solid;text-decoration-color:#000000;letter-spacing:normal;word-spacing:normal;text-transform:none;writing-mode:lr-tb;direction:ltr;text-orientation:mixed;dominant-baseline:auto;baseline-shift:baseline;text-anchor:start;white-space:normal;shape-padding:0;shape-margin:0;inline-size:0;clip-rule:nonzero;display:inline;overflow:visible;visibility:visible;opacity:1;isolation:auto;mix-blend-mode:normal;color-interpolation:sRGB;color-interpolation-filters:linearRGB;solid-color:#000000;solid-opacity:1;vector-effect:none;fill:#ff0000;fill-opacity:1;fill-rule:nonzero;stroke:none;stroke-width:0.326757px;stroke-linecap:round;stroke-linejoin:miter;stroke-miterlimit:4;stroke-dasharray:none;stroke-dashoffset:0;stroke-opacity:1;color-rendering:auto;image-rendering:auto;shape-rendering:auto;text-rendering:auto;enable-background:accumulate;stop-color:#000000;stop-opacity:1" />
          <path
             style="color:#000000;font-style:normal;font-variant:normal;font-weight:normal;font-stretch:normal;font-size:medium;line-height:normal;font-family:sans-serif;font-variant-ligatures:normal;font-variant-position:normal;font-variant-caps:normal;font-variant-numeric:normal;font-variant-alternates:normal;font-variant-east-asian:normal;font-feature-settings:normal;font-variation-settings:normal;text-indent:0;text-align:start;text-decoration:none;text-decoration-line:none;text-decoration-style:solid;text-decoration-color:#000000;letter-spacing:normal;word-spacing:normal;text-transform:none;writing-mode:lr-tb;direction:ltr;text-orientation:mixed;dominant-baseline:auto;baseline-shift:baseline;text-anchor:start;white-space:normal;shape-padding:0;shape-margin:0;inline-size:0;clip-rule:nonzero;display:inline;overflow:visible;visibility:visible;opacity:1;isolation:auto;mix-blend-mode:normal;color-interpolation:sRGB;color-interpolation-filters:linearRGB;solid-color:#000000;solid-opacity:1;vector-effect:none;fill:#ff0000;fill-opacity:1;fill-rule:nonzero;stroke:none;stroke-width:0.326757px;stroke-linecap:round;stroke-linejoin:miter;stroke-miterlimit:4;stroke-dasharray:none;stroke-dashoffset:0;stroke-opacity:1;color-rendering:auto;image-rendering:auto;shape-rendering:auto;text-rendering:auto;enable-background:accumulate;stop-color:#000000;stop-opacity:1"
             d="m 232.56638,11.563572 c 1.08075,-0.01351 0.71134,0.730706 0.005,0.678749 -1.23439,-0.0168 -1.88559,1.123666 -1.49002,2.663683 0.0409,0.210886 0.12526,0.139393 0.21931,0.0074 0.32225,-0.545382 0.76804,-1.060631 1.2963,-1.085973 0.47695,-0.02285 0.82471,0.358973 0.99954,0.914076 0.0312,0.0846 -0.0123,0.178517 -0.0964,0.209849 -0.0846,0.03125 -0.17852,-0.01235 -0.20985,-0.09645 -0.18506,-0.399543 -0.50355,-0.446608 -0.80262,-0.413276 -0.43709,0.04878 -0.80237,0.443459 -1.01126,0.847448 -0.19289,0.403137 -0.63218,0.235982 -0.76832,-0.0599 -0.43986,-1.399808 0.30202,-3.564667 1.85857,-3.66501 z"
             id="path934"
             sodipodi:nodetypes="ccccscccacccc" />
          <path
             style="color:#000000;font-style:normal;font-variant:normal;font-weight:normal;font-stretch:normal;font-size:medium;line-height:normal;font-family:sans-serif;font-variant-ligatures:normal;font-variant-position:normal;font-variant-caps:normal;font-variant-numeric:normal;font-variant-alternates:normal;font-variant-east-asian:normal;font-feature-settings:normal;font-variation-settings:normal;text-indent:0;text-align:start;text-decoration:none;text-decoration-line:none;text-decoration-style:solid;text-decoration-color:#000000;letter-spacing:normal;word-spacing:normal;text-transform:none;writing-mode:lr-tb;direction:ltr;text-orientation:mixed;dominant-baseline:auto;baseline-shift:baseline;text-anchor:start;white-space:normal;shape-padding:0;shape-margin:0;inline-size:0;clip-rule:nonzero;display:inline;overflow:visible;visibility:visible;opacity:1;isolation:auto;mix-blend-mode:normal;color-interpolation:sRGB;color-interpolation-filters:linearRGB;solid-color:#000000;solid-opacity:1;vector-effect:none;fill:#ff0000;fill-opacity:1;fill-rule:nonzero;stroke:none;stroke-width:0.326757px;stroke-linecap:round;stroke-linejoin:miter;stroke-miterlimit:4;stroke-dasharray:none;stroke-dashoffset:0;stroke-opacity:1;color-rendering:auto;image-rendering:auto;shape-rendering:auto;text-rendering:auto;enable-background:accumulate;stop-color:#000000;stop-opacity:1"
             d="m 238.87165,13.559497 c -0.0131,-1.68088 -2.33282,-2.063022 -3.71918,-1.966137 -0.0898,-0.0012 -0.28814,0.08398 -0.27584,0.246713 -0.001,0.20649 0.1788,0.280861 0.26861,0.283146 1.47781,-0.421588 3.00293,0.04631 3.04766,1.431449 0.0168,1.234382 -1.12366,1.885591 -2.66368,1.490012 -0.21089,-0.04088 -0.13939,-0.125252 -0.007,-0.219309 0.54538,-0.322245 1.06063,-0.768038 1.08597,-1.296292 0.0228,-0.476952 -0.35897,-0.824712 -0.91407,-0.999549 -0.0846,-0.03125 -0.17852,0.01235 -0.20985,0.09645 -0.0312,0.0846 0.0123,0.178518 0.0964,0.209849 0.39954,0.185063 0.44661,0.503554 0.41328,0.802618 -0.0488,0.4371 -0.44346,0.802372 -0.84745,1.01127 -0.40314,0.19288 -0.23598,0.632178 0.0599,0.76831 1.39981,0.439866 3.56467,-0.302016 3.66501,-1.858569 z"
             id="path936"
             sodipodi:nodetypes="sccccccscccacccs" />
        </g>
      </g>
      <g
         style="font-style:normal;font-weight:normal;font-size:1.60999px;line-height:1.25;font-family:sans-serif;fill:#000000;fill-opacity:1;stroke:none;stroke-width:0.0402496"
         id="text944"
         aria-label="光爱照明设计">
        <g
           id="g1053">
          <g
             id="g926"
             transform="matrix(1.484375,0,0,1.484375,-106.10063,-6.9877139)">
            <path
               d="m 245.46035,10.846816 c 0,0 0.061,0.444283 -0.20621,0.78696 -0.26717,0.342677 -1.38939,1.086414 -1.40107,1.678611 -0.0131,0.661005 0.49938,1.134279 1.06425,1.138386 0.56337,0.0041 0.90601,-0.342659 0.90601,-0.342659 0,0 0.41714,0.259797 0.93192,0.232886 0.34734,-0.01816 0.86385,-0.418203 0.8549,-1.011207 -0.0608,-1.268199 -0.95873,-1.999123 -2.1498,-2.482977 z m 0.0956,0.167454 c 1.03103,0.60797 1.47072,1.126196 1.69106,1.957745 0.13141,0.495873 -0.11178,0.990382 -0.45369,1.056945 -0.13381,0.02605 -0.28081,0.0046 -0.41979,-0.03722 0.14219,-0.102353 0.3003,-0.273336 0.28371,-0.522184 -0.0287,-0.431228 -0.6088,-0.786705 -0.85023,-0.786705 -0.24032,0 -0.6237,0.252217 -0.79255,0.655207 -0.15664,0.373844 0.16745,0.712922 0.25664,0.796743 -0.0948,0.03734 -0.20004,0.06179 -0.31572,0.06099 -0.52203,-0.0037 -0.8173,-0.335138 -0.80526,-0.91973 0.0108,-0.523736 0.94523,-1.144705 1.20369,-1.437974 0.28757,-0.326295 0.20214,-0.823805 0.20214,-0.823807 z m 0.26275,1.858899 c 0.26511,0 0.66276,0.218849 0.68595,0.542511 0.0172,0.240194 -0.22122,0.400481 -0.35663,0.472126 0.0365,-0.0571 0.0557,-0.12162 0.0558,-0.187275 1e-5,-0.209649 -0.19146,-0.379613 -0.42766,-0.379631 -0.23625,-4.3e-5 -0.42779,0.169939 -0.42778,0.379631 7e-5,0.05461 0.0134,0.108566 0.0392,0.158179 -0.13875,-0.136194 -0.29642,-0.346278 -0.20837,-0.541749 0.13625,-0.302468 0.41756,-0.443792 0.63959,-0.443792 z"
               style="fill:#ff0000;stroke:none;stroke-width:0.012293;stroke-linecap:round;stroke-linejoin:miter;stroke-miterlimit:4;stroke-dasharray:none;stroke-opacity:1"
               id="path898"
               sodipodi:nodetypes="cccscscccssccsscccccscccccccs" />
            <g
               transform="matrix(0.256,0,0,0.256,186.98516,11.673195)"
               id="g908">
              <path
                 style="color:#000000;font-style:normal;font-variant:normal;font-weight:normal;font-stretch:normal;font-size:medium;line-height:normal;font-family:sans-serif;font-variant-ligatures:normal;font-variant-position:normal;font-variant-caps:normal;font-variant-numeric:normal;font-variant-alternates:normal;font-variant-east-asian:normal;font-feature-settings:normal;font-variation-settings:normal;text-indent:0;text-align:start;text-decoration:none;text-decoration-line:none;text-decoration-style:solid;text-decoration-color:#000000;letter-spacing:normal;word-spacing:normal;text-transform:none;writing-mode:lr-tb;direction:ltr;text-orientation:mixed;dominant-baseline:auto;baseline-shift:baseline;text-anchor:start;white-space:normal;shape-padding:0;shape-margin:0;inline-size:0;clip-rule:nonzero;display:inline;overflow:visible;visibility:visible;opacity:1;isolation:auto;mix-blend-mode:normal;color-interpolation:sRGB;color-interpolation-filters:linearRGB;solid-color:#000000;solid-opacity:1;vector-effect:none;fill:#ff0000;fill-opacity:1;fill-rule:nonzero;stroke:none;stroke-width:0.326757px;stroke-linecap:round;stroke-linejoin:miter;stroke-miterlimit:4;stroke-dasharray:none;stroke-dashoffset:0;stroke-opacity:1;color-rendering:auto;image-rendering:auto;shape-rendering:auto;text-rendering:auto;enable-background:accumulate;stop-color:#000000;stop-opacity:1"
                 d="m 227.32959,11.563577 c -1.68088,0.01307 -2.06303,2.332817 -1.96614,3.719176 -0.001,0.08981 0.084,0.288141 0.24671,0.275839 0.20649,0.0017 0.28086,-0.178799 0.28315,-0.268602 -0.42159,-1.477819 0.0463,-3.00294 1.43145,-3.047665 1.23438,-0.01676 1.88559,1.123659 1.49001,2.663682 -0.0409,0.210881 -0.12525,0.139392 -0.21931,0.0068 -0.32224,-0.545386 -0.76804,-1.060632 -1.29629,-1.085983 -0.47695,-0.02288 -0.82471,0.358979 -0.99955,0.914079 -0.0312,0.0846 0.0123,0.178522 0.0964,0.209851 0.0846,0.03127 0.17852,-0.01186 0.20985,-0.09649 0.18506,-0.399541 0.50355,-0.446609 0.80262,-0.413275 0.4371,0.04872 0.80237,0.443464 1.01127,0.84745 0.19288,0.403137 0.63218,0.235973 0.76831,-0.05983 0.43986,-1.39981 -0.30202,-3.564672 -1.85857,-3.665019 z"
                 id="path900"
                 sodipodi:nodetypes="sccccccscccacccs" />
              <path
                 sodipodi:nodetypes="sccccccscccacccs"
                 id="path902"
                 d="m 220.08447,13.559497 c 0.0131,-1.68088 2.33282,-2.063022 3.71918,-1.966137 0.0898,-0.0012 0.28814,0.08398 0.27584,0.246713 0.001,0.20649 -0.1788,0.280861 -0.26861,0.283146 -1.47781,-0.421588 -3.00293,0.04631 -3.04766,1.431449 -0.0168,1.234382 1.12366,1.885591 2.66368,1.490012 0.21089,-0.04088 0.13939,-0.125252 0.007,-0.219309 -0.54538,-0.322245 -1.06063,-0.768038 -1.08597,-1.296292 -0.0229,-0.476952 0.35897,-0.824712 0.91407,-0.999549 0.0846,-0.03125 0.17852,0.01235 0.20985,0.09645 0.0312,0.0846 -0.0123,0.178518 -0.0965,0.209849 -0.39954,0.185063 -0.44661,0.503554 -0.41328,0.802618 0.0488,0.4371 0.44346,0.802372 0.84745,1.01127 0.40314,0.19288 0.23598,0.632178 -0.0599,0.76831 -1.39981,0.439866 -3.56467,-0.302016 -3.66501,-1.858569 z"
                 style="color:#000000;font-style:normal;font-variant:normal;font-weight:normal;font-stretch:normal;font-size:medium;line-height:normal;font-family:sans-serif;font-variant-ligatures:normal;font-variant-position:normal;font-variant-caps:normal;font-variant-numeric:normal;font-variant-alternates:normal;font-variant-east-asian:normal;font-feature-settings:normal;font-variation-settings:normal;text-indent:0;text-align:start;text-decoration:none;text-decoration-line:none;text-decoration-style:solid;text-decoration-color:#000000;letter-spacing:normal;word-spacing:normal;text-transform:none;writing-mode:lr-tb;direction:ltr;text-orientation:mixed;dominant-baseline:auto;baseline-shift:baseline;text-anchor:start;white-space:normal;shape-padding:0;shape-margin:0;inline-size:0;clip-rule:nonzero;display:inline;overflow:visible;visibility:visible;opacity:1;isolation:auto;mix-blend-mode:normal;color-interpolation:sRGB;color-interpolation-filters:linearRGB;solid-color:#000000;solid-opacity:1;vector-effect:none;fill:#ff0000;fill-opacity:1;fill-rule:nonzero;stroke:none;stroke-width:0.326757px;stroke-linecap:round;stroke-linejoin:miter;stroke-miterlimit:4;stroke-dasharray:none;stroke-dashoffset:0;stroke-opacity:1;color-rendering:auto;image-rendering:auto;shape-rendering:auto;text-rendering:auto;enable-background:accumulate;stop-color:#000000;stop-opacity:1" />
              <path
                 style="color:#000000;font-style:normal;font-variant:normal;font-weight:normal;font-stretch:normal;font-size:medium;line-height:normal;font-family:sans-serif;font-variant-ligatures:normal;font-variant-position:normal;font-variant-caps:normal;font-variant-numeric:normal;font-variant-alternates:normal;font-variant-east-asian:normal;font-feature-settings:normal;font-variation-settings:normal;text-indent:0;text-align:start;text-decoration:none;text-decoration-line:none;text-decoration-style:solid;text-decoration-color:#000000;letter-spacing:normal;word-spacing:normal;text-transform:none;writing-mode:lr-tb;direction:ltr;text-orientation:mixed;dominant-baseline:auto;baseline-shift:baseline;text-anchor:start;white-space:normal;shape-padding:0;shape-margin:0;inline-size:0;clip-rule:nonzero;display:inline;overflow:visible;visibility:visible;opacity:1;isolation:auto;mix-blend-mode:normal;color-interpolation:sRGB;color-interpolation-filters:linearRGB;solid-color:#000000;solid-opacity:1;vector-effect:none;fill:#ff0000;fill-opacity:1;fill-rule:nonzero;stroke:none;stroke-width:0.326757px;stroke-linecap:round;stroke-linejoin:miter;stroke-miterlimit:4;stroke-dasharray:none;stroke-dashoffset:0;stroke-opacity:1;color-rendering:auto;image-rendering:auto;shape-rendering:auto;text-rendering:auto;enable-background:accumulate;stop-color:#000000;stop-opacity:1"
                 d="m 232.56638,11.563572 c 1.08075,-0.01351 0.71134,0.730706 0.005,0.678749 -1.23439,-0.0168 -1.88559,1.123666 -1.49002,2.663683 0.0409,0.210886 0.12526,0.139393 0.21931,0.0074 0.32225,-0.545382 0.76804,-1.060631 1.2963,-1.085973 0.47695,-0.02285 0.82471,0.358973 0.99954,0.914076 0.0312,0.0846 -0.0123,0.178517 -0.0964,0.209849 -0.0846,0.03125 -0.17852,-0.01235 -0.20985,-0.09645 -0.18506,-0.399543 -0.50355,-0.446608 -0.80262,-0.413276 -0.43709,0.04878 -0.80237,0.443459 -1.01126,0.847448 -0.19289,0.403137 -0.63218,0.235982 -0.76832,-0.0599 -0.43986,-1.399808 0.30202,-3.564667 1.85857,-3.66501 z"
                 id="path904"
                 sodipodi:nodetypes="ccccscccacccc" />
              <path
                 style="color:#000000;font-style:normal;font-variant:normal;font-weight:normal;font-stretch:normal;font-size:medium;line-height:normal;font-family:sans-serif;font-variant-ligatures:normal;font-variant-position:normal;font-variant-caps:normal;font-variant-numeric:normal;font-variant-alternates:normal;font-variant-east-asian:normal;font-feature-settings:normal;font-variation-settings:normal;text-indent:0;text-align:start;text-decoration:none;text-decoration-line:none;text-decoration-style:solid;text-decoration-color:#000000;letter-spacing:normal;word-spacing:normal;text-transform:none;writing-mode:lr-tb;direction:ltr;text-orientation:mixed;dominant-baseline:auto;baseline-shift:baseline;text-anchor:start;white-space:normal;shape-padding:0;shape-margin:0;inline-size:0;clip-rule:nonzero;display:inline;overflow:visible;visibility:visible;opacity:1;isolation:auto;mix-blend-mode:normal;color-interpolation:sRGB;color-interpolation-filters:linearRGB;solid-color:#000000;solid-opacity:1;vector-effect:none;fill:#ff0000;fill-opacity:1;fill-rule:nonzero;stroke:none;stroke-width:0.326757px;stroke-linecap:round;stroke-linejoin:miter;stroke-miterlimit:4;stroke-dasharray:none;stroke-dashoffset:0;stroke-opacity:1;color-rendering:auto;image-rendering:auto;shape-rendering:auto;text-rendering:auto;enable-background:accumulate;stop-color:#000000;stop-opacity:1"
                 d="m 238.87165,13.559497 c -0.0131,-1.68088 -2.33282,-2.063022 -3.71918,-1.966137 -0.0898,-0.0012 -0.28814,0.08398 -0.27584,0.246713 -0.001,0.20649 0.1788,0.280861 0.26861,0.283146 1.47781,-0.421588 3.00293,0.04631 3.04766,1.431449 0.0168,1.234382 -1.12366,1.885591 -2.66368,1.490012 -0.21089,-0.04088 -0.13939,-0.125252 -0.007,-0.219309 0.54538,-0.322245 1.06063,-0.768038 1.08597,-1.296292 0.0228,-0.476952 -0.35897,-0.824712 -0.91407,-0.999549 -0.0846,-0.03125 -0.17852,0.01235 -0.20985,0.09645 -0.0312,0.0846 0.0123,0.178518 0.0964,0.209849 0.39954,0.185063 0.44661,0.503554 0.41328,0.802618 -0.0488,0.4371 -0.44346,0.802372 -0.84745,1.01127 -0.40314,0.19288 -0.23598,0.632178 0.0599,0.76831 1.39981,0.439866 3.56467,-0.302016 3.66501,-1.858569 z"
                 id="path906"
                 sodipodi:nodetypes="sccccccscccacccs" />
            </g>
          </g>
          <path
             id="path946"
             style="stroke-width:0.0402497"
             d="m 254.5724,15.855866 v 1.436889 h -0.69494 v 0.116318 h 0.45831 c -0.004,0.183429 -0.0396,0.319715 -0.10612,0.408806 -0.0702,0.103765 -0.19759,0.187594 -0.38206,0.251534 0.0325,0.04193 0.0593,0.07917 0.0802,0.11166 0.18448,-0.06394 0.32022,-0.156697 0.40722,-0.278286 0.0804,-0.111629 0.12256,-0.276218 0.12656,-0.493714 h 0.30423 v 0.525125 c 0,0.07127 0.0136,0.122135 0.0409,0.152535 0.0325,0.03564 0.0891,0.05346 0.16982,0.05346 h 0.18707 c 0.0807,0 0.13789,-0.01 0.17139,-0.02987 0.0356,-0.01991 0.0586,-0.05662 0.0676,-0.110082 0.009,-0.04612 0.0193,-0.123135 0.0283,-0.231097 -0.0483,-0.01467 -0.0923,-0.03042 -0.13206,-0.04719 -0.004,0.09329 -0.0103,0.168222 -0.0173,0.224822 -0.007,0.05555 -0.0487,0.08333 -0.12421,0.08333 h -0.15565 c -0.0472,0 -0.0781,-0.01048 -0.0928,-0.03145 -0.0107,-0.01572 -0.0157,-0.04346 -0.0157,-0.0833 v -0.5063 h 0.5157 v -0.116318 h -0.70753 v -1.436889 z m 8.29836,0.779668 v 0.540864 h -0.43284 v 0.1132 h 0.43284 v 1.442467 h 0.13521 v -1.442467 h 0.46069 v -0.1132 h -0.46069 v -0.540864 z m -0.80029,0.02044 -0.0959,0.08333 c 0.0901,0.09329 0.16815,0.183432 0.23425,0.270432 l 0.11005,-0.09276 c -0.0514,-0.0566 -0.13417,-0.143607 -0.24842,-0.261001 z m -5.13818,0.01728 c -0.41298,0.02621 -0.87103,0.0409 -1.37415,0.04403 0.009,0.04193 0.0166,0.07966 0.022,0.113201 0.0729,-0.0015 0.14415,-0.0031 0.21385,-0.0047 l -0.0849,0.05658 c 0.0472,0.05346 0.0914,0.109016 0.13283,0.166663 h -0.30264 v 0.238986 h 0.12263 V 17.15911 h 1.17764 v 0.128904 h 0.12263 v -0.238986 h -0.27909 c 0.0477,-0.0587 0.0941,-0.121066 0.13914,-0.187101 l -0.11631,-0.06289 c -0.0419,0.07233 -0.088,0.139425 -0.13838,0.201265 l 0.07,0.04873 h -0.77827 l 0.0904,-0.06131 c -0.0456,-0.05922 -0.0925,-0.113191 -0.14073,-0.16193 0.13994,-0.0037 0.2741,-0.0073 0.4025,-0.01101 l -0.0825,0.04715 h -3e-5 c 0.0429,0.05346 0.0859,0.114767 0.12894,0.183947 l 0.10846,-0.05974 c -0.0387,-0.05817 -0.0817,-0.115812 -0.1289,-0.172938 0.26152,-0.0084 0.49945,-0.01781 0.7138,-0.02829 z m 3.5911,0.0063 -0.0943,0.08176 c 0.0671,0.06918 0.13887,0.153044 0.21539,0.251571 l 0.11008,-0.09118 c -0.0734,-0.08176 -0.15042,-0.162481 -0.23113,-0.242143 z m -2.72792,0.02671 v 0.103769 l 0.19143,3.8e-5 c 0.001,0.164562 -0.0849,0.292441 -0.25785,0.383632 0.0303,0.03039 0.0576,0.06132 0.0817,0.09276 0.19177,-0.106914 0.28897,-0.265711 0.29164,-0.476394 h 0.33098 c 0,0.04088 -0.003,0.09852 -0.009,0.172937 -0.005,0.06079 -0.0414,0.09118 -0.10846,0.09118 -0.043,0 -0.10588,-0.0052 -0.18868,-0.01571 0.01,0.04403 0.0176,0.08543 0.0236,0.12421 0.0817,0.0031 0.14359,0.0047 0.18552,0.0047 0.12579,0 0.19392,-0.06551 0.20438,-0.196532 0.006,-0.07966 0.0117,-0.174539 0.0157,-0.284596 z m 1.6714,0.0016 v 0.553452 c 0,0.225356 -0.0199,0.389907 -0.0598,0.493676 -0.0409,0.110057 -0.12527,0.222724 -0.25315,0.338023 0.0409,0.03355 0.0749,0.06552 0.10219,0.09592 h 4e-5 c 0.17611,-0.165611 0.27882,-0.346436 0.30815,-0.542445 h 0.46855 v 0.305035 c 0,0.06184 -0.0319,0.09276 -0.0959,0.09276 -0.0639,0 -0.14781,-0.0032 -0.25157,-0.0094 0.01,0.04402 0.0176,0.08702 0.0236,0.128942 0.10377,0.0031 0.19286,0.0047 0.26728,0.0047 0.12054,0 0.18082,-0.06237 0.18082,-0.187102 v -1.273528 z m 1.51402,0 v 0.165085 c 0,0.140455 -0.0775,0.250508 -0.23268,0.33017 0.0325,0.03039 0.0628,0.0629 0.0912,0.0975 0.17609,-0.09434 0.26415,-0.237921 0.26415,-0.430785 v -0.04561 h 0.39307 l -8e-5,0.227978 c 0,0.109009 0.0493,0.163507 0.14781,0.163507 h 0.20754 c 0.003,-0.03459 0.007,-0.07338 0.0126,-0.116355 h -0.17298 c -0.0482,0 -0.0723,-0.02358 -0.0723,-0.07075 v -0.320739 z m -3.80327,0.0047 v 1.037698 h 0.11635 v -0.07078 h 0.27356 v 0.05978 h 0.11635 v -1.026691 z m -3.09104,0.04246 -0.0959,0.07544 c 0.0954,0.111107 0.19074,0.232173 0.28614,0.363193 l 0.11478,-0.08803 c -0.0975,-0.117395 -0.19913,-0.234261 -0.305,-0.350608 z m 1.09901,0 c -0.0933,0.124733 -0.20021,0.244738 -0.32074,0.360039 l 0.0975,0.08491 c 0.12054,-0.118444 0.2332,-0.23951 0.33802,-0.363194 z m 3.59888,0.0031 v 1.183923 h 0.11794 v -0.114778 h 0.37416 v -1.069145 z m -1.49053,0.06132 h 0.27355 v 0.31762 h -0.27355 z m 2.2971,0.0063 h 0.44179 v 0.295567 h -0.44179 z m -0.68863,0.04715 h 0.25627 v 0.358497 h -0.25627 z m 1.40706,0.284596 v 0.1132 h 0.19968 v 0.559726 c 0,0.05975 -0.0178,0.106905 -0.0534,0.14149 l 0.0755,0.103771 c 0.0702,-0.0566 0.17714,-0.131534 0.32074,-0.224822 -0.005,-0.04402 -0.009,-0.09068 -0.011,-0.13995 h -7e-5 c -0.0734,0.05136 -0.14414,0.09957 -0.21227,0.144647 V 17.15749 Z m 1.60057,0.0178 v 0.1132 h 0.22325 v 0.614252 c 0,0.06394 -0.0183,0.111619 -0.055,0.143069 l 0.0755,0.106925 c 0.10901,-0.07756 0.24737,-0.168771 0.41508,-0.273588 -0.004,-0.03668 -0.008,-0.08228 -0.011,-0.136794 h -7e-5 c -0.10796,0.07023 -0.20752,0.133128 -0.29873,0.188678 V 17.17529 Z m -5.89275,0.02466 c -0.0136,0.04507 -0.0288,0.08855 -0.0456,0.130482 h -0.4717 l 7e-5,0.110044 h 0.42213 c -0.1064,0.213827 -0.2623,0.39098 -0.46774,0.531435 0.0251,0.03774 0.0477,0.076 0.0676,0.114779 0.15461,-0.11163 0.2851,-0.244769 0.39149,-0.399374 0.076,0.10272 0.17454,0.189726 0.2956,0.261002 -0.16246,0.05922 -0.35532,0.103234 -0.57858,0.132061 0.0283,0.03669 0.0523,0.07234 0.0723,0.106925 0.24684,-0.03616 0.46039,-0.09302 0.64067,-0.170589 0.17033,0.07599 0.37551,0.127631 0.61554,0.154883 0.0209,-0.03878 0.0456,-0.08178 0.0739,-0.12894 -0.20649,-0.01205 -0.38781,-0.04428 -0.54398,-0.09669 0.13626,-0.07442 0.24893,-0.163792 0.33802,-0.268086 v -0.110044 h -0.8372 c 0.0235,-0.04088 0.0455,-0.08334 0.066,-0.127364 h 0.9583 V 17.33043 h -0.91034 c 0.0168,-0.04245 0.0325,-0.08594 0.0472,-0.130482 z m 3.57375,0.03456 h 0.44179 v 0.298724 h -0.45361 c 0.009,-0.09119 0.0131,-0.190761 0.0118,-0.298724 z m -2.2971,0.0094 h 0.27355 v 0.328629 h -0.27355 z m 0.55503,0.02359 v 0.484247 h 0.11635 v -0.04873 h 0.46697 v 0.04873 h 0.11635 v -0.484165 z m 2.98731,0.06132 v 0.108504 h 0.0825 c 0.055,0.165086 0.14335,0.306306 0.26493,0.423701 -0.13992,0.087 -0.31394,0.158544 -0.522,0.214623 0.0273,0.03669 0.0546,0.07442 0.0818,0.113201 0.21801,-0.06866 0.39827,-0.151179 0.54082,-0.24761 0.13888,0.102721 0.30188,0.181043 0.48898,0.235022 0.0273,-0.03773 0.0592,-0.08016 0.0959,-0.127326 -0.18815,-0.03459 -0.34906,-0.09594 -0.48271,-0.183983 0.12159,-0.103245 0.22381,-0.24577 0.30662,-0.427628 V 17.32882 Z m -1.93387,0.01416 h 0.25627 v 0.369469 h -0.25627 z m -0.93712,0.02514 h 0.46696 v 0.23429 h -0.46696 z m 3.07221,0.06921 h 0.5157 c -0.0666,0.149365 -0.15537,0.267007 -0.26647,0.352956 -0.1132,-0.101672 -0.19629,-0.219314 -0.24923,-0.352956 z m -4.99427,0.237408 h 0.61554 c -0.0797,0.08385 -0.18262,0.155646 -0.30892,0.215393 -0.12106,-0.0566 -0.22328,-0.128395 -0.30662,-0.215393 z m 2.37643,0.09746 -0.10061,0.05974 c 0.0692,0.101672 0.13204,0.204421 0.18864,0.30819 l 0.11008,-0.06447 c -0.0587,-0.101672 -0.12474,-0.202834 -0.19811,-0.303458 z m -1.15247,0.01416 c -0.0356,0.09434 -0.0922,0.206509 -0.16978,0.336482 0.0387,0.01677 0.076,0.03353 0.11162,0.05031 0.0734,-0.132068 0.13002,-0.246854 0.16982,-0.344333 z m 0.77512,0.01255 -0.10374,0.04561 c 0.0493,0.0891 0.0969,0.186055 0.14307,0.290873 l 0.11162,-0.05346 c -0.044,-0.09329 -0.0944,-0.187637 -0.15095,-0.283019 z m -0.40407,0.0095 -0.10374,0.04715 c 0.0535,0.103769 0.099,0.202281 0.13676,0.295567 l 0.1132,-0.05031 c -0.0398,-0.09119 -0.0886,-0.188644 -0.14622,-0.292413 z" />
        </g>
        <g
           id="g1043"
           transform="translate(-0.38647407,-1.3580439)">
          <path
             d="m 245.46035,10.846816 c 0,0 0.061,0.444283 -0.20621,0.78696 -0.26717,0.342677 -1.38939,1.086414 -1.40107,1.678611 -0.0131,0.661005 0.49938,1.134279 1.06425,1.138386 0.56337,0.0041 0.90601,-0.342659 0.90601,-0.342659 0,0 0.41714,0.259797 0.93192,0.232886 0.34734,-0.01816 0.86385,-0.418203 0.8549,-1.011207 -0.0608,-1.268199 -0.95873,-1.999123 -2.1498,-2.482977 z m 0.0956,0.167454 c 1.03103,0.60797 1.47072,1.126196 1.69106,1.957745 0.13141,0.495873 -0.11178,0.990382 -0.45369,1.056945 -0.13381,0.02605 -0.28081,0.0046 -0.41979,-0.03722 0.14219,-0.102353 0.3003,-0.273336 0.28371,-0.522184 -0.0287,-0.431228 -0.6088,-0.786705 -0.85023,-0.786705 -0.24032,0 -0.6237,0.252217 -0.79255,0.655207 -0.15664,0.373844 0.16745,0.712922 0.25664,0.796743 -0.0948,0.03734 -0.20004,0.06179 -0.31572,0.06099 -0.52203,-0.0037 -0.8173,-0.335138 -0.80526,-0.91973 0.0108,-0.523736 0.94523,-1.144705 1.20369,-1.437974 0.28757,-0.326295 0.20214,-0.823805 0.20214,-0.823807 z m 0.26275,1.858899 c 0.26511,0 0.66276,0.218849 0.68595,0.542511 0.0172,0.240194 -0.22122,0.400481 -0.35663,0.472126 0.0365,-0.0571 0.0557,-0.12162 0.0558,-0.187275 1e-5,-0.209649 -0.19146,-0.379613 -0.42766,-0.379631 -0.23625,-4.3e-5 -0.42779,0.169939 -0.42778,0.379631 7e-5,0.05461 0.0134,0.108566 0.0392,0.158179 -0.13875,-0.136194 -0.29642,-0.346278 -0.20837,-0.541749 0.13625,-0.302468 0.41756,-0.443792 0.63959,-0.443792 z"
             style="fill:#ff0000;stroke:none;stroke-width:0.012293;stroke-linecap:round;stroke-linejoin:miter;stroke-miterlimit:4;stroke-dasharray:none;stroke-opacity:1"
             id="path1031"
             sodipodi:nodetypes="cccscscccssccsscccccscccccccs" />
          <g
             transform="matrix(0.256,0,0,0.256,186.98516,11.673195)"
             id="g1041">
            <path
               style="color:#000000;font-style:normal;font-variant:normal;font-weight:normal;font-stretch:normal;font-size:medium;line-height:normal;font-family:sans-serif;font-variant-ligatures:normal;font-variant-position:normal;font-variant-caps:normal;font-variant-numeric:normal;font-variant-alternates:normal;font-variant-east-asian:normal;font-feature-settings:normal;font-variation-settings:normal;text-indent:0;text-align:start;text-decoration:none;text-decoration-line:none;text-decoration-style:solid;text-decoration-color:#000000;letter-spacing:normal;word-spacing:normal;text-transform:none;writing-mode:lr-tb;direction:ltr;text-orientation:mixed;dominant-baseline:auto;baseline-shift:baseline;text-anchor:start;white-space:normal;shape-padding:0;shape-margin:0;inline-size:0;clip-rule:nonzero;display:inline;overflow:visible;visibility:visible;opacity:1;isolation:auto;mix-blend-mode:normal;color-interpolation:sRGB;color-interpolation-filters:linearRGB;solid-color:#000000;solid-opacity:1;vector-effect:none;fill:#ff0000;fill-opacity:1;fill-rule:nonzero;stroke:none;stroke-width:0.326757px;stroke-linecap:round;stroke-linejoin:miter;stroke-miterlimit:4;stroke-dasharray:none;stroke-dashoffset:0;stroke-opacity:1;color-rendering:auto;image-rendering:auto;shape-rendering:auto;text-rendering:auto;enable-background:accumulate;stop-color:#000000;stop-opacity:1"
               d="m 227.32959,11.563577 c -1.68088,0.01307 -2.06303,2.332817 -1.96614,3.719176 -0.001,0.08981 0.084,0.288141 0.24671,0.275839 0.20649,0.0017 0.28086,-0.178799 0.28315,-0.268602 -0.42159,-1.477819 0.0463,-3.00294 1.43145,-3.047665 1.23438,-0.01676 1.88559,1.123659 1.49001,2.663682 -0.0409,0.210881 -0.12525,0.139392 -0.21931,0.0068 -0.32224,-0.545386 -0.76804,-1.060632 -1.29629,-1.085983 -0.47695,-0.02288 -0.82471,0.358979 -0.99955,0.914079 -0.0312,0.0846 0.0123,0.178522 0.0964,0.209851 0.0846,0.03127 0.17852,-0.01186 0.20985,-0.09649 0.18506,-0.399541 0.50355,-0.446609 0.80262,-0.413275 0.4371,0.04872 0.80237,0.443464 1.01127,0.84745 0.19288,0.403137 0.63218,0.235973 0.76831,-0.05983 0.43986,-1.39981 -0.30202,-3.564672 -1.85857,-3.665019 z"
               id="path1033"
               sodipodi:nodetypes="sccccccscccacccs" />
            <path
               sodipodi:nodetypes="sccccccscccacccs"
               id="path1035"
               d="m 220.08447,13.559497 c 0.0131,-1.68088 2.33282,-2.063022 3.71918,-1.966137 0.0898,-0.0012 0.28814,0.08398 0.27584,0.246713 0.001,0.20649 -0.1788,0.280861 -0.26861,0.283146 -1.47781,-0.421588 -3.00293,0.04631 -3.04766,1.431449 -0.0168,1.234382 1.12366,1.885591 2.66368,1.490012 0.21089,-0.04088 0.13939,-0.125252 0.007,-0.219309 -0.54538,-0.322245 -1.06063,-0.768038 -1.08597,-1.296292 -0.0229,-0.476952 0.35897,-0.824712 0.91407,-0.999549 0.0846,-0.03125 0.17852,0.01235 0.20985,0.09645 0.0312,0.0846 -0.0123,0.178518 -0.0965,0.209849 -0.39954,0.185063 -0.44661,0.503554 -0.41328,0.802618 0.0488,0.4371 0.44346,0.802372 0.84745,1.01127 0.40314,0.19288 0.23598,0.632178 -0.0599,0.76831 -1.39981,0.439866 -3.56467,-0.302016 -3.66501,-1.858569 z"
               style="color:#000000;font-style:normal;font-variant:normal;font-weight:normal;font-stretch:normal;font-size:medium;line-height:normal;font-family:sans-serif;font-variant-ligatures:normal;font-variant-position:normal;font-variant-caps:normal;font-variant-numeric:normal;font-variant-alternates:normal;font-variant-east-asian:normal;font-feature-settings:normal;font-variation-settings:normal;text-indent:0;text-align:start;text-decoration:none;text-decoration-line:none;text-decoration-style:solid;text-decoration-color:#000000;letter-spacing:normal;word-spacing:normal;text-transform:none;writing-mode:lr-tb;direction:ltr;text-orientation:mixed;dominant-baseline:auto;baseline-shift:baseline;text-anchor:start;white-space:normal;shape-padding:0;shape-margin:0;inline-size:0;clip-rule:nonzero;display:inline;overflow:visible;visibility:visible;opacity:1;isolation:auto;mix-blend-mode:normal;color-interpolation:sRGB;color-interpolation-filters:linearRGB;solid-color:#000000;solid-opacity:1;vector-effect:none;fill:#ff0000;fill-opacity:1;fill-rule:nonzero;stroke:none;stroke-width:0.326757px;stroke-linecap:round;stroke-linejoin:miter;stroke-miterlimit:4;stroke-dasharray:none;stroke-dashoffset:0;stroke-opacity:1;color-rendering:auto;image-rendering:auto;shape-rendering:auto;text-rendering:auto;enable-background:accumulate;stop-color:#000000;stop-opacity:1" />
            <path
               style="color:#000000;font-style:normal;font-variant:normal;font-weight:normal;font-stretch:normal;font-size:medium;line-height:normal;font-family:sans-serif;font-variant-ligatures:normal;font-variant-position:normal;font-variant-caps:normal;font-variant-numeric:normal;font-variant-alternates:normal;font-variant-east-asian:normal;font-feature-settings:normal;font-variation-settings:normal;text-indent:0;text-align:start;text-decoration:none;text-decoration-line:none;text-decoration-style:solid;text-decoration-color:#000000;letter-spacing:normal;word-spacing:normal;text-transform:none;writing-mode:lr-tb;direction:ltr;text-orientation:mixed;dominant-baseline:auto;baseline-shift:baseline;text-anchor:start;white-space:normal;shape-padding:0;shape-margin:0;inline-size:0;clip-rule:nonzero;display:inline;overflow:visible;visibility:visible;opacity:1;isolation:auto;mix-blend-mode:normal;color-interpolation:sRGB;color-interpolation-filters:linearRGB;solid-color:#000000;solid-opacity:1;vector-effect:none;fill:#ff0000;fill-opacity:1;fill-rule:nonzero;stroke:none;stroke-width:0.326757px;stroke-linecap:round;stroke-linejoin:miter;stroke-miterlimit:4;stroke-dasharray:none;stroke-dashoffset:0;stroke-opacity:1;color-rendering:auto;image-rendering:auto;shape-rendering:auto;text-rendering:auto;enable-background:accumulate;stop-color:#000000;stop-opacity:1"
               d="m 232.56638,11.563572 c 1.08075,-0.01351 0.71134,0.730706 0.005,0.678749 -1.23439,-0.0168 -1.88559,1.123666 -1.49002,2.663683 0.0409,0.210886 0.12526,0.139393 0.21931,0.0074 0.32225,-0.545382 0.76804,-1.060631 1.2963,-1.085973 0.47695,-0.02285 0.82471,0.358973 0.99954,0.914076 0.0312,0.0846 -0.0123,0.178517 -0.0964,0.209849 -0.0846,0.03125 -0.17852,-0.01235 -0.20985,-0.09645 -0.18506,-0.399543 -0.50355,-0.446608 -0.80262,-0.413276 -0.43709,0.04878 -0.80237,0.443459 -1.01126,0.847448 -0.19289,0.403137 -0.63218,0.235982 -0.76832,-0.0599 -0.43986,-1.399808 0.30202,-3.564667 1.85857,-3.66501 z"
               id="path1037"
               sodipodi:nodetypes="ccccscccacccc" />
            <path
               style="color:#000000;font-style:normal;font-variant:normal;font-weight:normal;font-stretch:normal;font-size:medium;line-height:normal;font-family:sans-serif;font-variant-ligatures:normal;font-variant-position:normal;font-variant-caps:normal;font-variant-numeric:normal;font-variant-alternates:normal;font-variant-east-asian:normal;font-feature-settings:normal;font-variation-settings:normal;text-indent:0;text-align:start;text-decoration:none;text-decoration-line:none;text-decoration-style:solid;text-decoration-color:#000000;letter-spacing:normal;word-spacing:normal;text-transform:none;writing-mode:lr-tb;direction:ltr;text-orientation:mixed;dominant-baseline:auto;baseline-shift:baseline;text-anchor:start;white-space:normal;shape-padding:0;shape-margin:0;inline-size:0;clip-rule:nonzero;display:inline;overflow:visible;visibility:visible;opacity:1;isolation:auto;mix-blend-mode:normal;color-interpolation:sRGB;color-interpolation-filters:linearRGB;solid-color:#000000;solid-opacity:1;vector-effect:none;fill:#ff0000;fill-opacity:1;fill-rule:nonzero;stroke:none;stroke-width:0.326757px;stroke-linecap:round;stroke-linejoin:miter;stroke-miterlimit:4;stroke-dasharray:none;stroke-dashoffset:0;stroke-opacity:1;color-rendering:auto;image-rendering:auto;shape-rendering:auto;text-rendering:auto;enable-background:accumulate;stop-color:#000000;stop-opacity:1"
               d="m 238.87165,13.559497 c -0.0131,-1.68088 -2.33282,-2.063022 -3.71918,-1.966137 -0.0898,-0.0012 -0.28814,0.08398 -0.27584,0.246713 -0.001,0.20649 0.1788,0.280861 0.26861,0.283146 1.47781,-0.421588 3.00293,0.04631 3.04766,1.431449 0.0168,1.234382 -1.12366,1.885591 -2.66368,1.490012 -0.21089,-0.04088 -0.13939,-0.125252 -0.007,-0.219309 0.54538,-0.322245 1.06063,-0.768038 1.08597,-1.296292 0.0228,-0.476952 -0.35897,-0.824712 -0.91407,-0.999549 -0.0846,-0.03125 -0.17852,0.01235 -0.20985,0.09645 -0.0312,0.0846 0.0123,0.178518 0.0964,0.209849 0.39954,0.185063 0.44661,0.503554 0.41328,0.802618 -0.0488,0.4371 -0.44346,0.802372 -0.84745,1.01127 -0.40314,0.19288 -0.23598,0.632178 0.0599,0.76831 1.39981,0.439866 3.56467,-0.302016 3.66501,-1.858569 z"
               id="path1039"
               sodipodi:nodetypes="sccccccscccacccs" />
          </g>
        </g>
      </g>
    </g>
  </g>
</svg>
